<?xml version="1.0" standalone="no"?>
<!DOCTYPE svg PUBLIC "-//W3C//DTD SVG 20010904//EN"
 "http://www.w3.org/TR/2001/REC-SVG-20010904/DTD/svg10.dtd">
<svg version="1.0" xmlns="http://www.w3.org/2000/svg"
 width="513.000000pt" height="513.000000pt" viewBox="0 0 513.000000 513.000000"
 preserveAspectRatio="xMidYMid meet">
<metadata>
Created by potrace 1.14, written by Peter Selinger 2001-2017
</metadata>
<g transform="translate(0.000000,513.000000) scale(0.100000,-0.100000)"
fill="#000000" stroke="none">
<path d="M2473 4185 c-81 -18 -150 -55 -205 -113 -25 -26 -191 -247 -369 -492
-178 -245 -360 -494 -406 -554 -273 -361 -353 -820 -217 -1243 103 -322 350
-615 655 -777 311 -166 707 -200 1046 -90 460 148 804 536 909 1025 25 117 26
389 1 512 -43 212 -127 398 -264 578 -45 60 -227 308 -404 552 -177 243 -342
463 -367 489 -57 59 -123 95 -209 113 -81 17 -90 17 -170 0z m163 -234 c51
-23 50 -22 421 -531 170 -234 342 -468 382 -520 89 -117 172 -282 208 -415 25
-91 27 -116 27 -285 1 -172 -1 -192 -27 -284 -33 -121 -98 -260 -166 -359 -61
-88 -202 -227 -290 -287 -93 -62 -236 -127 -348 -157 -89 -25 -115 -27 -283
-27 -172 -1 -192 1 -284 27 -245 68 -465 216 -617 416 -69 92 -154 267 -186
386 -24 91 -27 116 -27 285 0 170 2 193 27 285 37 139 118 297 223 434 48 63
226 306 397 540 170 234 319 437 331 450 28 32 93 61 136 61 19 0 53 -9 76
-19z"/>
<path d="M2256 1964 c-63 -64 -61 -211 5 -273 65 -60 149 17 149 139 0 126
-86 201 -154 134z"/>
<path d="M2756 1964 c-63 -64 -61 -211 5 -273 65 -60 149 17 149 139 0 126
-86 201 -154 134z"/>
</g>
</svg>
